#define pixlogo_width 140
#define pixlogo_height 140
static char pixlogo_bits[] = {
  0x00, 0x00, 0x00, 0x00, 0x00, 0x00, 0x00, 0x00, 0x00, 0x00, 0x00, 0x00, 
  0x00, 0x00, 0x00, 0x00, 0x00, 0x00, 0x00, 0x00, 0x00, 0x00, 0x00, 0x00, 
  0x00, 0x00, 0x00, 0x00, 0x00, 0x00, 0x00, 0x00, 0x00, 0x00, 0x00, 0x00, 
  0x00, 0x00, 0x00, 0x00, 0x00, 0x00, 0x00, 0x00, 0x00, 0x00, 0x00, 0x00, 
  0x00, 0x00, 0x00, 0x00, 0x00, 0x00, 0x00, 0x00, 0x00, 0x00, 0x00, 0x00, 
  0x00, 0x00, 0x00, 0x00, 0x00, 0x00, 0x00, 0x00, 0x00, 0x00, 0x00, 0x00, 
  0x00, 0x00, 0x00, 0x00, 0x00, 0x00, 0x00, 0x00, 0x00, 0x00, 0x00, 0x00, 
  0x00, 0x00, 0x00, 0x00, 0x00, 0x00, 0x00, 0x00, 0x00, 0x00, 0x00, 0x00, 
  0x00, 0x00, 0x00, 0x00, 0x00, 0x00, 0x00, 0x00, 0x00, 0x00, 0x00, 0x00, 
  0x00, 0x00, 0x00, 0x00, 0x00, 0x00, 0x00, 0x00, 0x00, 0x00, 0x00, 0x00, 
  0x00, 0x00, 0x00, 0x00, 0x00, 0x00, 0x00, 0x00, 0x00, 0x00, 0x00, 0x00, 
  0x00, 0x00, 0x00, 0x00, 0x00, 0x00, 0x00, 0x00, 0x00, 0x00, 0x00, 0x00, 
  0x00, 0x00, 0x00, 0x00, 0x00, 0x00, 0x00, 0x00, 0x00, 0x00, 0x00, 0x00, 
  0x00, 0x00, 0x00, 0x00, 0x00, 0x00, 0x00, 0x00, 0x00, 0x00, 0x00, 0x00, 
  0x00, 0x00, 0x00, 0x00, 0x00, 0x00, 0x00, 0x00, 0x00, 0x00, 0x00, 0x00, 
  0x00, 0x00, 0x00, 0x00, 0x00, 0x00, 0x00, 0x00, 0x00, 0x00, 0x00, 0x00, 
  0x00, 0x00, 0x00, 0x00, 0x00, 0x00, 0x00, 0x00, 0x00, 0x00, 0x00, 0x00, 
  0x00, 0x00, 0x00, 0x00, 0x00, 0x00, 0x00, 0x00, 0x00, 0x00, 0x00, 0x00, 
  0x00, 0x00, 0x00, 0x00, 0x00, 0x00, 0x00, 0x00, 0x00, 0x00, 0x00, 0x00, 
  0x00, 0x00, 0x00, 0x00, 0x00, 0x00, 0x00, 0x00, 0x00, 0x00, 0x00, 0x00, 
  0x00, 0x00, 0x00, 0x00, 0x00, 0x00, 0x00, 0x00, 0x00, 0x00, 0x00, 0x00, 
  0x00, 0x00, 0x00, 0x00, 0x00, 0x00, 0x00, 0x00, 0x00, 0x00, 0x00, 0x00, 
  0x00, 0x00, 0x00, 0x00, 0x00, 0x00, 0x00, 0x00, 0x00, 0x00, 0x00, 0x00, 
  0x00, 0x00, 0x00, 0x00, 0x00, 0x00, 0x00, 0x00, 0x00, 0x00, 0x00, 0x00, 
  0x00, 0x00, 0x00, 0x00, 0x00, 0x00, 0x00, 0x00, 0x00, 0x00, 0x00, 0x00, 
  0x00, 0x00, 0x00, 0x00, 0x00, 0x00, 0x00, 0x00, 0x00, 0x00, 0x00, 0x00, 
  0x00, 0x00, 0x00, 0x00, 0x00, 0x00, 0x00, 0x00, 0x00, 0x00, 0x00, 0x00, 
  0x00, 0x00, 0x00, 0x00, 0x00, 0x00, 0x00, 0x00, 0x00, 0x00, 0x00, 0x00, 
  0x00, 0x00, 0x00, 0x00, 0x00, 0x00, 0x00, 0x00, 0x00, 0x00, 0x00, 0x00, 
  0x00, 0x00, 0x00, 0x00, 0x00, 0x00, 0x00, 0x00, 0x00, 0x00, 0x00, 0x00, 
  0x00, 0x00, 0x00, 0x00, 0x00, 0x00, 0x00, 0x00, 0x00, 0x00, 0x00, 0x00, 
  0x00, 0x00, 0x00, 0x00, 0x00, 0x00, 0x00, 0x00, 0x00, 0x00, 0x00, 0x00, 
  0x00, 0x00, 0x00, 0x00, 0x00, 0x00, 0x00, 0x00, 0x00, 0x00, 0x00, 0x00, 
  0x00, 0x00, 0x00, 0x00, 0x00, 0x00, 0x00, 0x00, 0x00, 0x00, 0x00, 0x00, 
  0x00, 0x00, 0x00, 0x00, 0x00, 0x00, 0x00, 0x00, 0x00, 0x00, 0x00, 0x00, 
  0x00, 0x00, 0x00, 0x00, 0x00, 0x00, 0x00, 0x00, 0x00, 0x00, 0x00, 0x00, 
  0x00, 0x00, 0x00, 0x00, 0x00, 0x00, 0x00, 0x00, 0x00, 0x00, 0x00, 0x00, 
  0x00, 0x00, 0x00, 0x00, 0x00, 0x00, 0x00, 0x00, 0x00, 0x00, 0x00, 0x00, 
  0x00, 0x00, 0x00, 0x00, 0x00, 0x00, 0x00, 0x00, 0x00, 0x00, 0x00, 0x00, 
  0x00, 0x00, 0x00, 0x00, 0x00, 0x00, 0x00, 0x00, 0x00, 0x00, 0x00, 0x00, 
  0x00, 0x00, 0x00, 0x00, 0x00, 0x00, 0x00, 0x00, 0x00, 0x00, 0x00, 0x00, 
  0x00, 0x00, 0x00, 0x00, 0x00, 0x00, 0x00, 0x00, 0x00, 0x00, 0x00, 0x00, 
  0x00, 0x00, 0x44, 0x00, 0x00, 0x00, 0x00, 0x00, 0x00, 0x00, 0x00, 0x00, 
  0x00, 0x00, 0x00, 0x80, 0x02, 0x00, 0x00, 0x00, 0x5C, 0x05, 0x00, 0x00, 
  0x00, 0x00, 0x00, 0x00, 0x00, 0x00, 0x00, 0x00, 0x00, 0x94, 0x05, 0x00, 
  0x00, 0x00, 0xF9, 0xD9, 0x01, 0x00, 0x00, 0x00, 0x00, 0x00, 0x00, 0x00, 
  0x00, 0x00, 0x68, 0xDB, 0x0E, 0x00, 0x00, 0x80, 0x2A, 0x77, 0x6E, 0x01, 
  0x00, 0x00, 0x00, 0x00, 0x00, 0x00, 0x00, 0x50, 0xDB, 0x6E, 0x13, 0x00, 
  0x00, 0x40, 0xED, 0x64, 0xB7, 0x09, 0x00, 0x00, 0x00, 0x00, 0x00, 0x00, 
  0xB0, 0xEE, 0x66, 0x77, 0x0D, 0x00, 0x00, 0xE0, 0xA9, 0xBF, 0x69, 0xF7, 
  0x05, 0x00, 0x00, 0x00, 0x00, 0x80, 0x5A, 0x99, 0xBD, 0x99, 0x39, 0x00, 
  0x00, 0x90, 0x3F, 0x99, 0x6D, 0x6E, 0x5F, 0x06, 0x00, 0x00, 0x00, 0x75, 
  0x63, 0xBF, 0x99, 0xDD, 0x5F, 0x00, 0x00, 0x68, 0xE2, 0xEB, 0xD6, 0xB9, 
  0xB2, 0xDD, 0x05, 0x00, 0xEA, 0x6B, 0xBD, 0x62, 0xE7, 0x66, 0x62, 0x00, 
  0x00, 0x7C, 0x9D, 0x6E, 0x97, 0xD7, 0x9D, 0x6D, 0x04, 0x68, 0x6B, 0xDD, 
  0xDB, 0x9D, 0x76, 0x7D, 0x9D, 0x00, 0x00, 0xD2, 0xE9, 0x9A, 0x75, 0x6C, 
  0xE9, 0xAA, 0x3F, 0x90, 0xB6, 0x56, 0x6C, 0xE9, 0x99, 0x93, 0xE9, 0x01, 
  0x00, 0xAF, 0x7B, 0xBB, 0xEE, 0xB5, 0x7B, 0xBB, 0x1A, 0xB8, 0xD7, 0xBA, 
  0x75, 0x7B, 0xBB, 0xEE, 0x7B, 0x01, 0x00, 0x00, 0x00, 0x00, 0x00, 0x00, 
  0x00, 0x00, 0x00, 0x00, 0x00, 0x00, 0x00, 0x00, 0x00, 0x00, 0x00, 0x00, 
  0x00, 0x00, 0x00, 0x00, 0x00, 0x00, 0x00, 0x00, 0x00, 0x00, 0x00, 0x00, 
  0x00, 0x00, 0x00, 0x00, 0x00, 0x00, 0x00, 0x00, 0x00, 0x00, 0x00, 0x00, 
  0x00, 0x00, 0x00, 0x00, 0x00, 0x00, 0x00, 0x00, 0x00, 0x00, 0x00, 0x00, 
  0x00, 0x00, 0x00, 0x00, 0x00, 0x00, 0x00, 0x00, 0x00, 0x00, 0x00, 0x00, 
  0x00, 0x00, 0x00, 0x00, 0x00, 0x00, 0x00, 0x00, 0x00, 0x00, 0x00, 0x00, 
  0x00, 0x00, 0xA8, 0x05, 0x00, 0x00, 0x00, 0x00, 0x00, 0x00, 0x00, 0x00, 
  0x00, 0x00, 0x00, 0x00, 0x00, 0x00, 0x00, 0x00, 0x78, 0x0A, 0x00, 0x00, 
  0x00, 0x00, 0x00, 0x00, 0x00, 0x00, 0x00, 0x00, 0x00, 0x00, 0x00, 0x00, 
  0x00, 0x00, 0x94, 0x07, 0x00, 0x00, 0x00, 0x00, 0x00, 0x00, 0x00, 0x00, 
  0x00, 0x00, 0x86, 0x61, 0x61, 0x18, 0x00, 0x00, 0xD8, 0x05, 0x10, 0x06, 
  0x00, 0x00, 0x00, 0x18, 0x00, 0x00, 0x00, 0xE0, 0xFF, 0xFF, 0xFF, 0xFF, 
  0x01, 0x00, 0x6C, 0x05, 0xF0, 0x3F, 0x00, 0x00, 0xC0, 0xFF, 0x00, 0x00, 
  0x00, 0xE0, 0xFF, 0xFF, 0xFF, 0xFF, 0x03, 0x00, 0xBC, 0x01, 0xF0, 0x3F, 
  0x00, 0x00, 0xC0, 0xFF, 0x00, 0x00, 0x00, 0xF0, 0xFF, 0xFF, 0xFF, 0xFF, 
  0x07, 0x00, 0x64, 0x07, 0xF0, 0x3F, 0x00, 0x00, 0xC0, 0x7F, 0x00, 0x00, 
  0x00, 0xE0, 0xFF, 0xFF, 0xFF, 0xFF, 0x0F, 0x00, 0x64, 0x02, 0xF0, 0x1F, 
  0x00, 0x00, 0xC0, 0xFF, 0x00, 0x00, 0x00, 0xF0, 0xFF, 0xFF, 0xFF, 0xFF, 
  0x0F, 0x00, 0xDC, 0x05, 0xF0, 0x3F, 0x00, 0x00, 0xE0, 0x7F, 0x00, 0x00, 
  0x00, 0xF0, 0xFF, 0xFF, 0xFF, 0xFF, 0x1F, 0x00, 0x94, 0x02, 0xF8, 0x3F, 
  0x00, 0x00, 0xF0, 0x7F, 0x00, 0x00, 0x00, 0xF0, 0xFF, 0xFF, 0xFF, 0xFF, 
  0x3F, 0x00, 0x00, 0x00, 0xF8, 0x7F, 0x00, 0x00, 0xF8, 0x7F, 0x00, 0x00, 
  0x00, 0xF0, 0xFF, 0xFF, 0xFF, 0xFF, 0x7F, 0x00, 0x00, 0x00, 0xF8, 0xFF, 
  0x00, 0x00, 0xFC, 0x7F, 0x00, 0x00, 0x00, 0xF0, 0xFF, 0xFF, 0xFF, 0xFF, 
  0xFF, 0x00, 0x00, 0x00, 0xF8, 0xFF, 0x01, 0x00, 0xFE, 0x3F, 0x00, 0x00, 
  0x00, 0xF0, 0x1F, 0x00, 0x00, 0xFC, 0x7F, 0x00, 0x55, 0x00, 0xF0, 0xFF, 
  0x01, 0x00, 0xFF, 0x3F, 0x00, 0x00, 0x00, 0xF8, 0x1F, 0x00, 0x00, 0xF0, 
  0x7F, 0x00, 0xFF, 0x03, 0xF0, 0xFF, 0x03, 0xC0, 0xFF, 0x0F, 0x00, 0x00, 
  0x00, 0xF8, 0x1F, 0x00, 0x00, 0xF0, 0x7F, 0x80, 0xFF, 0x03, 0xE0, 0xFF, 
  0x07, 0xE0, 0xFF, 0x07, 0x00, 0x00, 0x00, 0xF8, 0x1F, 0x00, 0x00, 0xE0, 
  0x7F, 0x00, 0xFF, 0x01, 0xC0, 0xFF, 0x0F, 0xF0, 0xFF, 0x03, 0x00, 0x00, 
  0x00, 0xF8, 0x1F, 0x00, 0x00, 0xE0, 0x7F, 0x00, 0xFF, 0x01, 0x80, 0xFF, 
  0x1F, 0xF8, 0xFF, 0x01, 0x00, 0x00, 0x00, 0xFC, 0x0F, 0x00, 0x00, 0xE0, 
  0x7F, 0x80, 0xFF, 0x01, 0x00, 0xFF, 0x1F, 0xFC, 0xFF, 0x00, 0x00, 0x00, 
  0x00, 0xF8, 0x0F, 0x00, 0x00, 0xE0, 0x3F, 0x80, 0xFF, 0x01, 0x00, 0xFF, 
  0x3F, 0xFE, 0x7F, 0x00, 0x00, 0x00, 0x00, 0xFC, 0x0F, 0x00, 0x00, 0xF0, 
  0x3F, 0x80, 0xFF, 0x00, 0x00, 0xFE, 0xFF, 0xFF, 0x1F, 0x00, 0x00, 0x00, 
  0x00, 0xFC, 0x0F, 0x00, 0x00, 0xF0, 0x3F, 0x80, 0xFF, 0x01, 0x00, 0xFC, 
  0xFF, 0xFF, 0x0F, 0x00, 0x00, 0x00, 0x00, 0xFC, 0x07, 0x00, 0x00, 0xF0, 
  0x3F, 0xC0, 0xFF, 0x00, 0x00, 0xF8, 0xFF, 0xFF, 0x07, 0x00, 0x00, 0x00, 
  0x00, 0xFC, 0x0F, 0x00, 0x00, 0xF0, 0x3F, 0x80, 0xFF, 0x00, 0x00, 0xF8, 
  0xFF, 0xFF, 0x03, 0x00, 0x00, 0x00, 0x00, 0xFC, 0x07, 0x00, 0x00, 0xF0, 
  0x1F, 0xC0, 0xFF, 0x00, 0x00, 0xF0, 0xFF, 0xFF, 0x03, 0x00, 0x00, 0x00, 
  0x00, 0xFE, 0x07, 0x00, 0x00, 0xF0, 0x1F, 0xC0, 0xFF, 0x00, 0x00, 0xE0, 
  0xFF, 0xFF, 0x00, 0x00, 0x00, 0x00, 0x00, 0xFE, 0x07, 0x00, 0x00, 0xF8, 
  0x1F, 0xC0, 0x7F, 0x00, 0x00, 0xC0, 0xFF, 0x7F, 0x00, 0x00, 0x00, 0x00, 
  0x00, 0xFE, 0x07, 0x00, 0x00, 0xF8, 0x1F, 0xC0, 0xFF, 0x00, 0x00, 0x80, 
  0xFF, 0x3F, 0x00, 0x00, 0x00, 0x00, 0x00, 0xFE, 0x03, 0x00, 0x00, 0xF8, 
  0x1F, 0xE0, 0x7F, 0x00, 0x00, 0xC0, 0xFF, 0x1F, 0x00, 0x00, 0x00, 0x00, 
  0x00, 0xFE, 0x07, 0x00, 0x00, 0xF8, 0x1F, 0xC0, 0x7F, 0x00, 0x00, 0xE0, 
  0xFF, 0x3F, 0x00, 0x00, 0x00, 0x00, 0x00, 0xFE, 0x03, 0x00, 0x00, 0xF8, 
  0x0F, 0xE0, 0x7F, 0x00, 0x00, 0xF0, 0xFF, 0x7F, 0x00, 0x00, 0x00, 0x00, 
  0x00, 0xFF, 0x03, 0x00, 0x00, 0xF8, 0x0F, 0xE0, 0x7F, 0x00, 0x00, 0xF8, 
  0xFF, 0xFF, 0x00, 0x00, 0x00, 0x00, 0x00, 0xFF, 0x03, 0x00, 0x00, 0xFC, 
  0x0F, 0xE0, 0x7F, 0x00, 0x00, 0xFC, 0xFF, 0xFF, 0x00, 0x00, 0x00, 0x00, 
  0x00, 0xFF, 0x03, 0x00, 0x00, 0xFC, 0x0F, 0xE0, 0x3F, 0x00, 0x00, 0xFE, 
  0xFF, 0xFF, 0x01, 0x00, 0x00, 0x00, 0x00, 0xFF, 0x01, 0x00, 0x00, 0xFC, 
  0x0F, 0xF0, 0x3F, 0x00, 0x80, 0xFF, 0xFF, 0xFF, 0x03, 0x00, 0x00, 0x00, 
  0x00, 0xFF, 0x03, 0x00, 0x00, 0xFC, 0x0F, 0xE0, 0x3F, 0x00, 0x80, 0xFF, 
  0xFF, 0xFF, 0x07, 0x00, 0x00, 0x00, 0x80, 0xFF, 0x01, 0x00, 0x00, 0xFC, 
  0x07, 0xF0, 0x3F, 0x00, 0xC0, 0xFF, 0xCF, 0xFF, 0x0F, 0x00, 0x00, 0x00, 
  0x00, 0xFF, 0x01, 0x00, 0x00, 0xFC, 0x07, 0xF0, 0x3F, 0x00, 0xF0, 0xFF, 
  0xC3, 0xFF, 0x1F, 0x00, 0x00, 0x00, 0x80, 0xFF, 0x01, 0x00, 0x00, 0xFE, 
  0x07, 0xF0, 0x3F, 0x00, 0xF8, 0xFF, 0x01, 0xFF, 0x1F, 0x00, 0x00, 0x00, 
  0x80, 0xFF, 0x01, 0x00, 0x00, 0xFE, 0x07, 0xF0, 0x1F, 0x00, 0xFC, 0xFF, 
  0x00, 0xFF, 0x3F, 0x00, 0x00, 0x00, 0x80, 0xFF, 0x00, 0x00, 0x00, 0xFF, 
  0x07, 0xF8, 0x1F, 0x00, 0xFE, 0x7F, 0x00, 0xFE, 0x7F, 0x00, 0x00, 0x00, 
  0x80, 0xFF, 0x01, 0x00, 0x80, 0xFF, 0x07, 0xF8, 0x1F, 0x00, 0xFF, 0x3F, 
  0x00, 0xFC, 0xFF, 0x00, 0x00, 0x00, 0xC0, 0xFF, 0x00, 0x00, 0xC0, 0xFF, 
  0x03, 0xF8, 0x1F, 0x80, 0xFF, 0x0F, 0x00, 0xF8, 0xFF, 0x00, 0x00, 0x00, 
  0xC0, 0xFF, 0xDD, 0xBB, 0xFB, 0xFF, 0x03, 0xF8, 0x1F, 0xE0, 0xFF, 0x0F, 
  0x00, 0xF8, 0xFF, 0x01, 0x00, 0x00, 0x80, 0xFF, 0xFF, 0xFF, 0xFF, 0xFF, 
  0x03, 0xF8, 0x0F, 0xC0, 0xFF, 0x03, 0x00, 0xF0, 0xFF, 0x01, 0x00, 0x00, 
  0xC0, 0xFF, 0xFF, 0xFF, 0xFF, 0xFF, 0x00, 0xF8, 0x0F, 0xE0, 0xFF, 0x01, 
  0x00, 0xE0, 0xFF, 0x01, 0x00, 0x00, 0xC0, 0xFF, 0xFF, 0xFF, 0xFF, 0x7F, 
  0x00, 0xFC, 0x0F, 0xE0, 0xFF, 0x00, 0x00, 0xC0, 0xFF, 0x01, 0x00, 0x00, 
  0xC0, 0xFF, 0xFF, 0xFF, 0xFF, 0x3F, 0x00, 0xFC, 0x0F, 0xE0, 0x7F, 0x00, 
  0x00, 0xC0, 0xFF, 0x01, 0x00, 0x00, 0xE0, 0xFF, 0xFF, 0xFF, 0xFF, 0x1F, 
  0x00, 0xFC, 0x0F, 0xE0, 0x3F, 0x00, 0x00, 0x80, 0xFF, 0x00, 0x00, 0x00, 
  0xE0, 0xFF, 0xFF, 0xFF, 0xFF, 0x0F, 0x00, 0xFC, 0x0F, 0xE0, 0x3F, 0x00, 
  0x00, 0x80, 0xFF, 0x00, 0x00, 0x00, 0xE0, 0xFF, 0xFF, 0xFF, 0xFF, 0x03, 
  0x00, 0xFC, 0x0F, 0xF0, 0x3F, 0x00, 0x00, 0xC0, 0xFF, 0x00, 0x00, 0x00, 
  0xE0, 0xFF, 0xFF, 0xFF, 0xFF, 0x01, 0x00, 0xFC, 0x07, 0xF0, 0x3F, 0x00, 
  0x00, 0x80, 0xFF, 0x00, 0x00, 0x00, 0xE0, 0xFF, 0xB6, 0xBD, 0xED, 0x00, 
  0x00, 0xDC, 0x03, 0x60, 0x17, 0x00, 0x00, 0x80, 0xDD, 0x00, 0x00, 0x00, 
  0xE0, 0x3F, 0x00, 0x00, 0x00, 0x00, 0x00, 0x00, 0x00, 0x00, 0x00, 0x00, 
  0x00, 0x00, 0x00, 0x00, 0x00, 0x00, 0xE0, 0x3F, 0x00, 0x00, 0x00, 0x00, 
  0x00, 0x00, 0x00, 0x00, 0x00, 0x00, 0x00, 0x00, 0x00, 0x00, 0x00, 0x00, 
  0xF0, 0x3F, 0x00, 0x00, 0x00, 0x00, 0x00, 0x00, 0x00, 0x00, 0x00, 0x00, 
  0x00, 0x00, 0x00, 0x00, 0x00, 0x00, 0xF0, 0x3F, 0x00, 0x00, 0x00, 0x00, 
  0x00, 0x00, 0x00, 0x00, 0x00, 0x00, 0x00, 0x00, 0x00, 0x00, 0x00, 0x00, 
  0xF0, 0x3F, 0x00, 0x00, 0x00, 0x00, 0x00, 0x00, 0x00, 0x00, 0x00, 0x00, 
  0x00, 0x00, 0x00, 0x00, 0x00, 0x00, 0xF0, 0x1F, 0x00, 0x00, 0x00, 0x00, 
  0x00, 0x00, 0x00, 0x00, 0x00, 0x00, 0x00, 0x00, 0x00, 0x00, 0x00, 0x00, 
  0xF0, 0x1F, 0x00, 0x00, 0x00, 0x00, 0x00, 0x00, 0x00, 0x00, 0x00, 0x00, 
  0x00, 0x00, 0x00, 0x00, 0x00, 0x00, 0xF8, 0x1F, 0x00, 0x00, 0x00, 0x00, 
  0x00, 0x00, 0x00, 0x00, 0x00, 0x00, 0x00, 0x00, 0x00, 0x00, 0x00, 0x00, 
  0xF8, 0x1F, 0x00, 0x00, 0x00, 0x00, 0x00, 0x00, 0x00, 0x00, 0x00, 0x00, 
  0x00, 0x00, 0x00, 0x00, 0x00, 0x00, 0xF8, 0x1F, 0x00, 0x00, 0x00, 0x00, 
  0x00, 0x00, 0x00, 0x00, 0x00, 0x00, 0x00, 0x00, 0x00, 0x00, 0x00, 0x00, 
  0xF8, 0x1F, 0x00, 0x00, 0x00, 0x00, 0x00, 0x00, 0x00, 0x00, 0x00, 0x00, 
  0x00, 0x00, 0x00, 0x00, 0x00, 0x00, 0xF8, 0x1F, 0x00, 0x00, 0x00, 0x00, 
  0x00, 0x00, 0x00, 0x00, 0x00, 0x00, 0x00, 0x00, 0x00, 0x00, 0x00, 0x00, 
  0xF8, 0x0F, 0x00, 0x00, 0x00, 0x00, 0x00, 0x00, 0x00, 0x00, 0x00, 0x00, 
  0x00, 0x00, 0x00, 0x00, 0x00, 0x00, 0xF8, 0x0F, 0x00, 0x00, 0x00, 0x00, 
  0x00, 0x00, 0x00, 0x00, 0x00, 0x00, 0x00, 0x00, 0x00, 0x00, 0x00, 0x00, 
  0xFC, 0x0F, 0x00, 0x00, 0x00, 0x00, 0x00, 0x00, 0x00, 0x00, 0x00, 0x00, 
  0x00, 0x00, 0x00, 0x00, 0x00, 0x00, 0xFC, 0x0F, 0x00, 0x00, 0x00, 0x00, 
  0x00, 0x00, 0x00, 0x00, 0x00, 0x00, 0x00, 0x00, 0x00, 0x00, 0x00, 0x00, 
  0x54, 0x05, 0x00, 0x00, 0x00, 0x00, 0x00, 0x00, 0x00, 0x00, 0x00, 0x00, 
  0x00, 0x00, 0x00, 0x00, 0x00, 0x00, 0x00, 0x00, 0x00, 0x00, 0x00, 0x00, 
  0x00, 0x00, 0x00, 0x00, 0x00, 0x00, 0x00, 0x00, 0x00, 0x00, 0x00, 0x00, 
  0x00, 0x00, 0x00, 0x00, 0x00, 0x00, 0x00, 0x00, 0x00, 0x00, 0x00, 0x00, 
  0x00, 0x00, 0x00, 0x00, 0x00, 0x00, 0x00, 0x00, 0x00, 0x00, 0x00, 0x00, 
  0x00, 0x00, 0x00, 0x00, 0x00, 0x00, 0x00, 0x00, 0x00, 0x00, 0x00, 0x00, 
  0x00, 0x00, 0x00, 0x00, 0x00, 0x00, 0x00, 0x00, 0x00, 0x00, 0x00, 0x00, 
  0x00, 0x00, 0x00, 0x00, 0x00, 0x00, 0x00, 0x00, 0x00, 0x00, 0x00, 0x00, 
  0x00, 0x00, 0x00, 0x00, 0x00, 0x00, 0x00, 0x00, 0x00, 0x00, 0x00, 0x00, 
  0x00, 0x00, 0x00, 0x00, 0x00, 0x00, 0x00, 0x00, 0x00, 0x00, 0x00, 0x00, 
  0x00, 0x00, 0x00, 0x00, 0x00, 0x00, 0x00, 0x00, 0x00, 0x00, 0x00, 0x00, 
  0x00, 0x00, 0x00, 0x00, 0x00, 0x00, 0x00, 0x00, 0x00, 0x00, 0x00, 0x00, 
  0x00, 0x00, 0x00, 0x00, 0x00, 0x00, 0x00, 0x00, 0x00, 0x00, 0x00, 0x00, 
  0x00, 0x00, 0x00, 0x00, 0x00, 0x00, 0x00, 0x00, 0x00, 0x00, 0x00, 0x00, 
  0x00, 0x00, 0x00, 0x00, 0x00, 0x00, 0x00, 0x00, 0x00, 0x00, 0x00, 0x00, 
  0x00, 0x00, 0x00, 0x00, 0x00, 0x00, 0x00, 0x00, 0x00, 0x00, 0x00, 0x00, 
  0x00, 0x00, 0x00, 0x00, 0x00, 0x00, 0x00, 0x00, 0x00, 0x00, 0x00, 0x00, 
  0x00, 0x00, 0x00, 0x00, 0x00, 0x00, 0x00, 0x00, 0x00, 0x00, 0x00, 0x00, 
  0x00, 0x00, 0x00, 0x00, 0x00, 0x00, 0x00, 0x00, 0x00, 0x00, 0x00, 0x00, 
  0x00, 0x00, 0x00, 0x00, 0x00, 0x00, 0x00, 0x00, 0x00, 0x00, 0x00, 0x00, 
  0x00, 0x00, 0x00, 0x00, 0x00, 0x00, 0x00, 0x00, 0x00, 0x00, 0x00, 0x00, 
  0x00, 0x00, 0x00, 0x00, 0x00, 0x00, 0x00, 0x00, 0x00, 0x00, 0x00, 0x00, 
  0x00, 0x00, 0x00, 0x00, 0x00, 0x00, 0x00, 0x00, 0x00, 0x00, 0x00, 0x00, 
  0x00, 0x00, 0x00, 0x00, 0x00, 0x00, 0x00, 0x00, 0x00, 0x00, 0x00, 0x00, 
  0x00, 0x00, 0x00, 0x00, 0x00, 0x00, 0x00, 0x00, 0x00, 0x00, 0x00, 0x00, 
  0x00, 0x00, 0x00, 0x00, 0x00, 0x00, 0x00, 0x00, 0x00, 0x00, 0x00, 0x00, 
  0x00, 0x00, 0x00, 0x00, 0x00, 0x00, 0x00, 0x00, 0x00, 0x00, 0x00, 0x00, 
  0x00, 0x00, 0x00, 0x00, 0x00, 0x00, 0x00, 0x00, 0x00, 0x00, 0x00, 0x00, 
  0x00, 0x00, 0x00, 0x00, 0x00, 0x00, 0x00, 0x00, 0x00, 0x00, 0x00, 0x00, 
  0x00, 0x00, 0x00, 0x00, 0x00, 0x00, 0x00, 0x00, 0x00, 0x00, 0x00, 0x00, 
  0x00, 0x00, 0x00, 0x00, 0x00, 0x00, 0x00, 0x00, 0x00, 0x00, 0x00, 0x00, 
  0x00, 0x00, 0x00, 0x00, 0x00, 0x00, 0x00, 0x00, 0x00, 0x00, 0x00, 0x00, 
  0x00, 0x00, 0x00, 0x00, 0x00, 0x00, 0x00, 0x00, 0x00, 0x00, 0x00, 0x00, 
  0x00, 0x00, 0x00, 0x00, 0x00, 0x00, 0x00, 0x00, 0x00, 0x00, 0x00, 0x00, 
  0x00, 0x00, 0x00, 0x00, 0x00, 0x00, 0x00, 0x00, 0x00, 0x00, 0x00, 0x00, 
  0x00, 0x00, 0x00, 0x00, 0x00, 0x00, 0x00, 0x00, 0x00, 0x00, 0x00, 0x00, 
  0x00, 0x00, 0x00, 0x00, 0x00, 0x00, 0x00, 0x00, 0x00, 0x00, 0x00, 0x00, 
  0x00, 0x00, 0x00, 0x00, 0x00, 0x00, 0x00, 0x00, 0x00, 0x00, 0x00, 0x00, 
  0x00, 0x00, 0x00, 0x00, 0x00, 0x00, 0x00, 0x00, 0x00, 0x00, 0x00, 0x00, 
  0x00, 0x00, 0x00, 0x00, 0x00, 0x00, 0x00, 0x00, 0x00, 0x00, 0x00, 0x00, 
  0x00, 0x00, 0x00, 0x00, 0x00, 0x00, 0x00, 0x00, 0x00, 0x00, 0x00, 0x00, 
  0x00, 0x00, 0x00, 0x00, 0x00, 0x00, 0x00, 0x00, 0x00, 0x00, 0x00, 0x00, 
  };
